HIERARCHY
ROOT Hips
{
     OFFSET 25.41780 97.08300 1.30186
     CHANNELS 6 Xposition Yposition Zposition Zrotation Xrotation Yrotation
     JOINT Spine
     {
          OFFSET -0.00000 11.89050 -0.00000
          CHANNELS 3 Zrotation Xrotation Yrotation
          JOINT Spine1
          {
               OFFSET 0.00000 25.65740 0.12766
               CHANNELS 3 Zrotation Xrotation Yrotation
               JOINT HEad
               {
                    OFFSET 0.00000 8.73416 0.01134
                    CHANNELS 3 Zrotation Xrotation Yrotation
                    End Site
                    {
                         OFFSET -0.29000 12.77420 2.51395
                    }
               }
               JOINT LeftShoulder1
               {
                    OFFSET 8.99000 -0.36225 -0.22000
                    CHANNELS 3 Zrotation Xrotation Yrotation
                    JOINT LeftArm
                    {
                         OFFSET 10.28270 -0.00338 0.32212
                         CHANNELS 3 Zrotation Xrotation Yrotation
                         JOINT LeftForeArm
                         {
                              OFFSET 32.76690 0.09914 -1.42434
                              CHANNELS 3 Zrotation Xrotation Yrotation
                              JOINT LeftHand
                              {
                                   OFFSET 27.56430 0.08536 1.02216
                                   CHANNELS 3 Zrotation Xrotation Yrotation
                                   End Site
                                   {
                                        OFFSET 16.74430 -0.60000 1.50291
                                   }
                              }
                         }
                    }
               }
               JOINT RightShoulder
               {
                    OFFSET -8.99000 -0.36225 -0.22000
                    CHANNELS 3 Zrotation Xrotation Yrotation
                    JOINT RightArm
                    {
                         OFFSET -10.28270 -0.00338 0.32212
                         CHANNELS 3 Zrotation Xrotation Yrotation
                         JOINT RightForeArm
                         {
                              OFFSET -32.89710 0.09914 -1.42434
                              CHANNELS 3 Zrotation Xrotation Yrotation
                              JOINT RightHand
                              {
                                   OFFSET -27.49210 0.08536 1.02216
                                   CHANNELS 3 Zrotation Xrotation Yrotation
                                   End Site
                                   {
                                        OFFSET -16.63120 -0.60000 1.50291
                                   }
                              }
                         }
                    }
               }
          }
     }
     JOINT LeftUpLeg
     {
          OFFSET 8.94580 -8.66707 0.10165
          CHANNELS 3 Zrotation Xrotation Yrotation
          JOINT LeftLeg
          {
               OFFSET 0.00000 -44.42270 1.37270
               CHANNELS 3 Zrotation Xrotation Yrotation
               JOINT LeftFoot
               {
                    OFFSET -0.25355 -42.09240 -1.46059
                    CHANNELS 3 Zrotation Xrotation Yrotation
                    JOINT LeftToes
                    {
                         OFFSET -0.04000 -4.41509 8.49910
                         CHANNELS 3 Zrotation Xrotation Yrotation
                         End Site
                         {
                              OFFSET 0.08000 -0.04745 9.77979
                         }
                    }
               }
          }
     }
     JOINT RightUpLeg
     {
          OFFSET -8.94580 -8.66707 0.10165
          CHANNELS 3 Zrotation Xrotation Yrotation
          JOINT RightLeg
          {
               OFFSET 0.00000 -44.42270 1.37270
               CHANNELS 3 Zrotation Xrotation Yrotation
               JOINT RightFoot
               {
                    OFFSET 0.25355 -42.09240 -1.46059
                    CHANNELS 3 Zrotation Xrotation Yrotation
                    JOINT RightToes
                    {
                         OFFSET 0.04000 -4.41509 8.49910
                         CHANNELS 3 Zrotation Xrotation Yrotation
                         End Site
                         {
                              OFFSET -0.08000 -0.13745 9.77979
                         }
                    }
               }
          }
     }
}
MOTION
Frames: 15
Frame Time: 0.01667
25.41780 97.08300 1.30186 -4.81893 -9.49870 -30.19170 -3.95580 9.81101 -1.92930 -2.00476 19.41520 -4.67562 9.94150 -18.20230 13.54410 -0.00000 -0.00000 0.00000 -171.74400 -59.51550 -144.27699 -62.15500 67.81920 -54.13690 19.34480 6.62799 -15.62830 21.13680 0.18409 -1.60097 84.81080 -2.70346 73.31050 13.53340 33.65050 101.23200 17.68370 12.05150 9.13336 13.16750 -2.54992 -12.49200 -16.93570 7.84399 48.98180 -3.99025 8.11932 0.48339 5.89594 -18.71960 -54.22750 -22.69180 10.14020 20.14720 30.57280 -2.50674 -20.94250 -38.73930 12.54800 7.04104 15.05900 -53.80870 25.20950 
25.74990 97.09420 1.58812 -4.49495 -9.70914 -30.16730 -4.09149 9.77654 -2.03140 -2.74226 19.38240 -4.73399 9.91745 -17.89400 13.88190 -0.00000 -0.00000 0.00000 -154.71500 -63.23530 -130.94600 -47.36340 63.44050 -67.00840 22.75910 5.94737 -15.94990 22.84880 0.31870 -1.06996 83.81120 -3.13612 73.09470 13.75340 33.60550 101.85800 18.61900 12.02720 8.33336 12.74890 -2.30912 -12.89710 -17.32190 7.25410 49.87710 -3.87130 8.21437 0.46967 5.84344 -19.04980 -55.49140 -23.32460 10.09160 19.91350 30.43590 -2.08920 -20.55780 -38.50240 12.30550 6.90880 15.01930 -53.66930 25.25740 
26.02320 97.16130 1.93852 -4.61325 -9.38962 -30.24770 -3.89726 9.73449 -2.09430 -2.65386 19.30810 -4.78492 9.69229 -18.26090 13.73910 -0.00000 -0.00000 0.00000 -143.75400 -64.29880 -121.95100 -40.09850 59.29520 -72.77120 22.48760 6.11357 -15.36140 22.95740 0.37548 -0.84465 83.26740 -3.18995 72.87660 13.75240 33.23690 102.20800 18.67650 12.08800 8.65439 12.97370 -2.44649 -13.50600 -17.77280 7.05641 50.47080 -4.01540 8.25041 0.49062 5.65716 -19.65550 -55.02120 -22.91500 10.15280 18.97480 29.59910 -1.81366 -19.45500 -38.17720 12.54460 6.92908 14.85030 -54.04270 24.48280 
26.27110 97.00940 2.18659 -4.57370 -9.48378 -30.53460 -4.19651 9.86631 -1.98044 -2.71179 19.55290 -4.66646 9.81042 -18.63210 14.52670 -0.00000 -0.00000 0.00000 -140.74500 -64.35490 -119.56500 -37.71160 58.08610 -74.09870 22.75430 6.04227 -15.47940 23.30040 0.32292 -1.06528 83.06130 -2.96230 73.04360 13.46030 33.33310 102.61100 18.84680 12.13590 8.82052 12.75040 -2.71049 -13.97310 -18.21580 7.71207 51.34970 -3.80503 7.97599 0.45410 5.40979 -20.52450 -55.05870 -23.51570 10.01340 19.55060 30.02530 -1.79801 -19.56020 -38.19880 12.48380 6.91206 14.63160 -54.39440 23.62650 
26.45950 96.99630 2.45189 -4.45712 -9.41105 -31.09400 -4.17918 9.86920 -1.84851 -2.29385 19.53460 -4.49415 8.94120 -18.96060 15.79950 -0.00000 -0.00000 0.00000 -133.17300 -64.51040 -112.63300 -35.94980 54.18640 -74.60000 21.90560 6.11523 -15.89520 21.01970 0.13798 -1.79981 84.32100 -1.87593 72.85590 13.79010 33.20440 101.79000 19.35140 12.18840 8.78534 12.22280 -2.51426 -11.62550 -17.29900 8.15495 50.75190 -2.71278 9.23244 0.32743 4.32645 -24.15260 -56.50110 -23.89310 9.59510 20.53440 30.11550 -1.83100 -19.61600 -38.04610 11.94210 6.69348 14.07750 -54.11450 22.59090 
26.68950 96.94820 2.66394 -4.46425 -9.54110 -31.25490 -4.26978 9.81539 -1.86819 -2.57198 19.43780 -4.49691 9.08615 -18.77750 16.14490 -0.00000 -0.00000 0.00000 -122.92700 -64.40030 -104.02500 -33.48740 49.92340 -76.28220 21.47550 6.26520 -15.51680 22.34540 0.20831 -1.51018 82.53440 -1.93877 72.28730 12.13110 32.31060 102.25200 18.97520 12.28130 9.57814 12.19490 -2.50289 -12.40710 -17.89980 8.12008 52.13940 -2.24745 9.44824 0.26198 3.91520 -25.43570 -56.87940 -24.34690 9.69363 20.58040 30.30140 -1.86408 -19.20410 -37.52580 12.13900 6.66196 14.05540 -54.03390 22.61470 
26.90590 96.95330 2.81486 -4.47244 -9.95038 -31.26170 -4.56023 9.92616 -1.97025 -2.89416 19.66060 -4.75019 7.99775 -17.46570 16.27020 -0.00000 -0.00000 0.00000 -120.61300 -64.59180 -102.41700 -33.13310 49.16600 -75.73200 21.91780 6.20157 -15.43370 22.64210 0.43273 -0.60052 83.09240 -3.05105 72.21490 13.26810 33.38870 100.67400 19.40790 12.23690 9.02421 11.78360 -2.16254 -12.15820 -17.77890 8.33283 52.15510 -2.88647 9.73088 0.36241 3.91286 -25.36190 -57.63880 -24.65060 10.04620 20.49980 30.05200 -1.59462 -18.77880 -37.03770 12.21080 6.59264 13.89930 -54.07400 22.20690 
26.97920 97.00060 2.92799 -4.26570 -10.02050 -31.31000 -4.43081 9.90877 -1.90151 -2.66324 19.61900 -4.60851 7.96417 -18.59760 16.75940 -0.00000 -0.00000 0.00000 -114.26800 -63.64140 -96.64260 -32.49330 45.92370 -75.54240 21.55040 6.19574 -15.81380 21.01130 0.24038 -1.35611 83.93270 -2.49747 71.98900 12.77220 33.20840 99.84800 18.95610 12.15860 8.87834 11.39770 -2.07860 -11.19520 -17.34390 8.44095 51.83060 -3.27113 10.56100 0.43911 3.63409 -26.04610 -59.01810 -24.83500 9.79624 20.73130 29.91260 -1.20493 -18.81340 -36.70020 11.87630 6.41563 13.45810 -53.67050 21.52590 
27.12220 97.01780 3.03657 -4.34106 -10.08820 -31.22430 -4.33928 9.89728 -1.91116 -2.61502 19.59910 -4.59708 7.76849 -18.37540 16.35610 -0.00000 -0.00000 0.00000 -110.84900 -63.36440 -93.51910 -31.39810 44.53490 -76.01660 21.47990 6.17883 -15.97220 21.26960 0.27880 -1.19582 83.71510 -3.07205 71.67090 13.64370 33.57700 98.59180 19.12410 12.19840 8.99529 11.34960 -2.09053 -11.69200 -17.49040 8.49055 52.09770 -3.24654 10.56760 0.43536 3.62196 -26.08890 -58.96080 -24.88940 9.94266 20.35840 29.84000 -1.00810 -18.30890 -36.10250 11.93780 6.32334 13.39160 -53.40600 21.60940 
27.20170 96.90600 3.09215 -4.27434 -10.32350 -31.36850 -4.56743 9.95461 -1.88524 -3.03469 19.72310 -4.53645 8.11685 -18.49160 17.47110 -0.00000 -0.00000 0.00000 -109.11900 -63.56750 -92.24570 -30.57890 44.09910 -76.55550 21.46140 6.21422 -15.80190 22.07400 0.41738 -0.63828 83.01350 -3.52416 71.56830 12.46000 33.22840 98.98260 19.40030 12.22570 8.96531 11.27560 -1.93718 -11.77870 -17.91330 8.42764 52.71360 -2.40010 10.53440 0.30073 3.24272 -27.14780 -59.30720 -25.44540 9.81787 21.23100 30.39330 -1.06858 -18.89280 -35.99570 11.79490 6.25626 13.40710 -53.41100 21.64220 
27.24020 96.83170 3.07600 -4.32743 -10.54540 -31.31560 -4.83317 10.02520 -1.79722 -2.93796 19.83930 -4.50855 7.02655 -17.98020 16.65190 -0.00000 -0.00000 0.00000 -109.22400 -63.73380 -92.19970 -31.88550 44.39300 -75.60030 21.47100 6.20809 -15.82520 21.51890 0.34462 -0.92212 83.51140 -3.21313 71.23190 11.92180 32.95860 99.39180 19.66510 12.19180 8.60088 11.12940 -1.93434 -11.38910 -17.89650 8.94414 51.84890 -2.66179 10.33670 0.33876 3.37745 -26.89400 -58.37140 -25.61210 9.77819 21.51690 30.60330 -0.77875 -19.75370 -36.18770 11.39940 6.16156 14.11740 -53.65780 23.12060 
27.26750 96.75780 2.98440 -4.51476 -10.70280 -31.09140 -4.78640 10.17310 -1.72172 -2.74501 20.12280 -4.39994 6.86087 -18.34610 16.64010 -0.00000 -0.00000 0.00000 -113.25500 -64.29370 -95.12410 -33.14230 46.63440 -74.66820 21.79360 6.09384 -16.11480 21.66300 0.31962 -1.03257 83.05860 -3.09806 71.52880 12.73410 32.58430 98.85970 20.50650 12.31250 8.73199 11.32300 -2.01008 -12.07810 -18.23120 9.13337 52.39570 -2.79243 10.04970 0.35398 3.46367 -26.59350 -58.67810 -25.53830 9.86014 21.53280 30.89540 -0.41115 -19.82390 -36.33580 10.92490 6.03133 13.59670 -53.24240 22.26110 
27.22440 96.69940 2.83401 -4.41752 -11.07610 -30.72640 -4.65359 10.20150 -1.86075 -2.66150 20.18450 -4.67297 6.63968 -17.95850 18.05540 -0.00000 -0.00000 0.00000 -109.77700 -64.30760 -91.89100 -32.09150 45.26200 -75.97750 21.38870 6.20958 -15.89760 21.04240 0.47843 -0.32656 83.15120 -3.64753 71.50370 13.30760 32.71870 98.63690 19.90470 12.25020 8.77244 11.18610 -1.81625 -12.60620 -18.44680 8.82810 52.52790 -2.36266 9.98149 0.28683 3.58727 -26.24340 -58.55020 -25.69590 10.18960 21.33400 30.83470 -0.34764 -20.84930 -37.29870 10.84190 6.17605 14.70850 -54.40130 23.79920 
27.16380 96.62980 2.70563 -4.41625 -11.14830 -30.69430 -4.77309 10.12710 -1.68609 -2.72538 20.02660 -4.35426 6.95373 -17.96460 17.84960 -0.00000 -0.00000 0.00000 -107.16600 -64.70850 -89.53270 -31.89370 45.21000 -76.42030 21.38200 6.19688 -15.97200 20.98730 0.61821 0.28273 83.32490 -4.53797 71.27510 13.85770 33.17080 98.58080 19.60130 12.22340 8.81938 11.16980 -1.90908 -12.48830 -18.40340 9.07651 52.28540 -2.21901 9.86525 0.26326 3.41726 -26.53650 -60.08670 -25.75450 10.16950 21.80950 30.98870 -0.57124 -21.37320 -37.37900 11.02860 6.25424 15.15100 -54.83370 24.40320 
27.06940 96.62910 2.44056 -4.51275 -11.49060 -30.57170 -4.47456 10.27510 -1.63681 -2.71952 20.34560 -4.12860 5.86945 -17.53070 17.44590 -0.00000 -0.00000 0.00000 -113.09000 -65.48210 -94.23330 -34.15830 47.89300 -74.89170 21.32150 6.27345 -15.62100 20.44180 0.46903 -0.33238 83.94920 -3.81758 71.50250 14.52880 33.39770 98.45780 19.56720 12.18140 8.60529 11.24380 -1.48150 -12.37250 -18.35410 8.71655 51.97080 -2.09760 10.03410 0.24681 3.47641 -26.38380 -59.96820 -25.64200 10.23450 21.66040 31.09110 0.03255 -21.19860 -37.42650 10.41690 6.05356 14.50080 -54.16610 23.54000 
